<mxfile host="app.diagrams.net" modified="2023-04-11T02:32:21.017Z" agent="Mozilla/5.0 (Windows NT 10.0; Win64; x64) AppleWebKit/537.36 (KHTML, like Gecko) Chrome/111.0.0.0 Safari/537.36" etag="bFEcwKXuBsa7s3snWafZ" version="21.1.5" type="github">
  <diagram name="ページ1" id="u6t8niu7WKDm82_rgCYX">
    <mxGraphModel dx="1050" dy="2887" grid="1" gridSize="10" guides="1" tooltips="1" connect="1" arrows="1" fold="1" page="1" pageScale="1" pageWidth="827" pageHeight="1169" math="0" shadow="0">
      <root>
        <mxCell id="0" />
        <mxCell id="1" parent="0" />
        <mxCell id="99pYwbjpEy3U4uOJJ85h-5" value="AWS Cloud" style="points=[[0,0],[0.25,0],[0.5,0],[0.75,0],[1,0],[1,0.25],[1,0.5],[1,0.75],[1,1],[0.75,1],[0.5,1],[0.25,1],[0,1],[0,0.75],[0,0.5],[0,0.25]];outlineConnect=0;gradientColor=none;html=1;whiteSpace=wrap;fontSize=12;fontStyle=0;container=1;pointerEvents=0;collapsible=0;recursiveResize=0;shape=mxgraph.aws4.group;grIcon=mxgraph.aws4.group_aws_cloud_alt;strokeColor=#232F3E;fillColor=none;verticalAlign=top;align=left;spacingLeft=30;fontColor=#232F3E;dashed=0;" vertex="1" parent="1">
          <mxGeometry x="39" y="-2080" width="750" height="800" as="geometry" />
        </mxCell>
        <mxCell id="99pYwbjpEy3U4uOJJ85h-3" value="Availability Zone 1a" style="fillColor=none;strokeColor=#147EBA;dashed=1;verticalAlign=top;fontStyle=0;fontColor=#147EBA;whiteSpace=wrap;html=1;" vertex="1" parent="99pYwbjpEy3U4uOJJ85h-5">
          <mxGeometry x="81" y="160" width="240" height="630" as="geometry" />
        </mxCell>
        <mxCell id="99pYwbjpEy3U4uOJJ85h-2" value="VPC&lt;br&gt;10.0.0.0/16" style="points=[[0,0],[0.25,0],[0.5,0],[0.75,0],[1,0],[1,0.25],[1,0.5],[1,0.75],[1,1],[0.75,1],[0.5,1],[0.25,1],[0,1],[0,0.75],[0,0.5],[0,0.25]];outlineConnect=0;gradientColor=none;html=1;whiteSpace=wrap;fontSize=12;fontStyle=0;container=1;pointerEvents=0;collapsible=0;recursiveResize=0;shape=mxgraph.aws4.group;grIcon=mxgraph.aws4.group_vpc;strokeColor=#248814;fillColor=none;verticalAlign=top;align=left;spacingLeft=30;fontColor=#AAB7B8;dashed=0;" vertex="1" parent="99pYwbjpEy3U4uOJJ85h-5">
          <mxGeometry x="40" y="200" width="680" height="600" as="geometry" />
        </mxCell>
        <mxCell id="99pYwbjpEy3U4uOJJ85h-6" value="private01-a&lt;br&gt;10.0.1.0/24" style="points=[[0,0],[0.25,0],[0.5,0],[0.75,0],[1,0],[1,0.25],[1,0.5],[1,0.75],[1,1],[0.75,1],[0.5,1],[0.25,1],[0,1],[0,0.75],[0,0.5],[0,0.25]];outlineConnect=0;gradientColor=none;html=1;whiteSpace=wrap;fontSize=12;fontStyle=0;container=1;pointerEvents=0;collapsible=0;recursiveResize=0;shape=mxgraph.aws4.group;grIcon=mxgraph.aws4.group_security_group;grStroke=0;strokeColor=#147EBA;fillColor=#E6F2F8;verticalAlign=top;align=left;spacingLeft=30;fontColor=#147EBA;dashed=0;" vertex="1" parent="99pYwbjpEy3U4uOJJ85h-2">
          <mxGeometry x="80" y="280" width="160" height="120" as="geometry" />
        </mxCell>
        <mxCell id="99pYwbjpEy3U4uOJJ85h-4" value="Availability Zone 1c" style="fillColor=none;strokeColor=#147EBA;dashed=1;verticalAlign=top;fontStyle=0;fontColor=#147EBA;whiteSpace=wrap;html=1;" vertex="1" parent="99pYwbjpEy3U4uOJJ85h-2">
          <mxGeometry x="400" y="-40" width="240" height="560" as="geometry" />
        </mxCell>
        <mxCell id="99pYwbjpEy3U4uOJJ85h-7" value="private02-c&lt;br&gt;10.0.2.0/24" style="points=[[0,0],[0.25,0],[0.5,0],[0.75,0],[1,0],[1,0.25],[1,0.5],[1,0.75],[1,1],[0.75,1],[0.5,1],[0.25,1],[0,1],[0,0.75],[0,0.5],[0,0.25]];outlineConnect=0;gradientColor=none;html=1;whiteSpace=wrap;fontSize=12;fontStyle=0;container=1;pointerEvents=0;collapsible=0;recursiveResize=0;shape=mxgraph.aws4.group;grIcon=mxgraph.aws4.group_security_group;grStroke=0;strokeColor=#147EBA;fillColor=#E6F2F8;verticalAlign=top;align=left;spacingLeft=30;fontColor=#147EBA;dashed=0;" vertex="1" parent="99pYwbjpEy3U4uOJJ85h-2">
          <mxGeometry x="440" y="280" width="160" height="120" as="geometry" />
        </mxCell>
        <mxCell id="99pYwbjpEy3U4uOJJ85h-9" value="public02-c&lt;br&gt;10.0.4.0/24" style="points=[[0,0],[0.25,0],[0.5,0],[0.75,0],[1,0],[1,0.25],[1,0.5],[1,0.75],[1,1],[0.75,1],[0.5,1],[0.25,1],[0,1],[0,0.75],[0,0.5],[0,0.25]];outlineConnect=0;gradientColor=none;html=1;whiteSpace=wrap;fontSize=12;fontStyle=0;container=1;pointerEvents=0;collapsible=0;recursiveResize=0;shape=mxgraph.aws4.group;grIcon=mxgraph.aws4.group_security_group;grStroke=0;strokeColor=#248814;fillColor=#E9F3E6;verticalAlign=top;align=left;spacingLeft=30;fontColor=#248814;dashed=0;" vertex="1" parent="99pYwbjpEy3U4uOJJ85h-2">
          <mxGeometry x="440" y="120" width="160" height="120" as="geometry" />
        </mxCell>
        <mxCell id="99pYwbjpEy3U4uOJJ85h-8" value="public01-a&lt;br&gt;10.0.3.0/24" style="points=[[0,0],[0.25,0],[0.5,0],[0.75,0],[1,0],[1,0.25],[1,0.5],[1,0.75],[1,1],[0.75,1],[0.5,1],[0.25,1],[0,1],[0,0.75],[0,0.5],[0,0.25]];outlineConnect=0;gradientColor=none;html=1;whiteSpace=wrap;fontSize=12;fontStyle=0;container=1;pointerEvents=0;collapsible=0;recursiveResize=0;shape=mxgraph.aws4.group;grIcon=mxgraph.aws4.group_security_group;grStroke=0;strokeColor=#248814;fillColor=#E9F3E6;verticalAlign=top;align=left;spacingLeft=30;fontColor=#248814;dashed=0;" vertex="1" parent="99pYwbjpEy3U4uOJJ85h-2">
          <mxGeometry x="80" y="120" width="160" height="120" as="geometry" />
        </mxCell>
        <mxCell id="99pYwbjpEy3U4uOJJ85h-10" value="DB-subnet&lt;br&gt;10.0.5.0/24" style="points=[[0,0],[0.25,0],[0.5,0],[0.75,0],[1,0],[1,0.25],[1,0.5],[1,0.75],[1,1],[0.75,1],[0.5,1],[0.25,1],[0,1],[0,0.75],[0,0.5],[0,0.25]];outlineConnect=0;gradientColor=none;html=1;whiteSpace=wrap;fontSize=12;fontStyle=0;container=1;pointerEvents=0;collapsible=0;recursiveResize=0;shape=mxgraph.aws4.group;grIcon=mxgraph.aws4.group_security_group;grStroke=0;strokeColor=#147EBA;fillColor=#E6F2F8;verticalAlign=top;align=left;spacingLeft=30;fontColor=#147EBA;dashed=0;" vertex="1" parent="99pYwbjpEy3U4uOJJ85h-2">
          <mxGeometry x="80" y="440" width="160" height="120" as="geometry" />
        </mxCell>
        <mxCell id="99pYwbjpEy3U4uOJJ85h-24" value="" style="sketch=0;outlineConnect=0;fontColor=#232F3E;gradientColor=none;fillColor=#2E27AD;strokeColor=none;dashed=0;verticalLabelPosition=bottom;verticalAlign=top;align=center;html=1;fontSize=12;fontStyle=0;aspect=fixed;pointerEvents=1;shape=mxgraph.aws4.rds_mysql_instance_alt;" vertex="1" parent="99pYwbjpEy3U4uOJJ85h-2">
          <mxGeometry x="531" y="330" width="50" height="50" as="geometry" />
        </mxCell>
        <mxCell id="99pYwbjpEy3U4uOJJ85h-12" value="" style="outlineConnect=0;dashed=0;verticalLabelPosition=bottom;verticalAlign=top;align=center;html=1;shape=mxgraph.aws3.vpc_nat_gateway;fillColor=#F58534;gradientColor=none;" vertex="1" parent="99pYwbjpEy3U4uOJJ85h-5">
          <mxGeometry x="231" y="340" width="39" height="40" as="geometry" />
        </mxCell>
        <mxCell id="99pYwbjpEy3U4uOJJ85h-18" style="edgeStyle=orthogonalEdgeStyle;rounded=0;orthogonalLoop=1;jettySize=auto;html=1;entryX=0.5;entryY=1;entryDx=0;entryDy=0;entryPerimeter=0;" edge="1" parent="99pYwbjpEy3U4uOJJ85h-5" source="99pYwbjpEy3U4uOJJ85h-6" target="99pYwbjpEy3U4uOJJ85h-12">
          <mxGeometry relative="1" as="geometry" />
        </mxCell>
        <mxCell id="99pYwbjpEy3U4uOJJ85h-19" style="edgeStyle=orthogonalEdgeStyle;rounded=0;orthogonalLoop=1;jettySize=auto;html=1;entryX=0.5;entryY=1;entryDx=0;entryDy=0;entryPerimeter=0;" edge="1" parent="99pYwbjpEy3U4uOJJ85h-5" source="99pYwbjpEy3U4uOJJ85h-7" target="99pYwbjpEy3U4uOJJ85h-12">
          <mxGeometry relative="1" as="geometry">
            <Array as="points">
              <mxPoint x="560" y="470" />
              <mxPoint x="251" y="470" />
            </Array>
          </mxGeometry>
        </mxCell>
        <mxCell id="99pYwbjpEy3U4uOJJ85h-20" value="&lt;b&gt;my-nat-gw&lt;/b&gt;" style="text;html=1;align=center;verticalAlign=middle;resizable=0;points=[];autosize=1;strokeColor=none;fillColor=none;" vertex="1" parent="99pYwbjpEy3U4uOJJ85h-5">
          <mxGeometry x="210.5" y="360" width="80" height="30" as="geometry" />
        </mxCell>
        <mxCell id="99pYwbjpEy3U4uOJJ85h-22" value="" style="sketch=0;outlineConnect=0;fontColor=#232F3E;gradientColor=none;fillColor=#2E27AD;strokeColor=none;dashed=0;verticalLabelPosition=bottom;verticalAlign=top;align=center;html=1;fontSize=12;fontStyle=0;aspect=fixed;pointerEvents=1;shape=mxgraph.aws4.rds_mysql_instance_alt;" vertex="1" parent="99pYwbjpEy3U4uOJJ85h-5">
          <mxGeometry x="210.5" y="700" width="50" height="50" as="geometry" />
        </mxCell>
        <mxCell id="99pYwbjpEy3U4uOJJ85h-23" value="" style="sketch=0;points=[[0,0,0],[0.25,0,0],[0.5,0,0],[0.75,0,0],[1,0,0],[0,1,0],[0.25,1,0],[0.5,1,0],[0.75,1,0],[1,1,0],[0,0.25,0],[0,0.5,0],[0,0.75,0],[1,0.25,0],[1,0.5,0],[1,0.75,0]];outlineConnect=0;fontColor=#232F3E;gradientColor=#F78E04;gradientDirection=north;fillColor=#D05C17;strokeColor=#ffffff;dashed=0;verticalLabelPosition=bottom;verticalAlign=top;align=center;html=1;fontSize=12;fontStyle=0;aspect=fixed;shape=mxgraph.aws4.resourceIcon;resIcon=mxgraph.aws4.ec2;" vertex="1" parent="99pYwbjpEy3U4uOJJ85h-5">
          <mxGeometry x="210.5" y="530" width="50" height="50" as="geometry" />
        </mxCell>
        <mxCell id="99pYwbjpEy3U4uOJJ85h-26" style="edgeStyle=orthogonalEdgeStyle;rounded=0;orthogonalLoop=1;jettySize=auto;html=1;entryX=0.136;entryY=1.033;entryDx=0;entryDy=0;entryPerimeter=0;" edge="1" parent="99pYwbjpEy3U4uOJJ85h-5" source="99pYwbjpEy3U4uOJJ85h-10" target="99pYwbjpEy3U4uOJJ85h-20">
          <mxGeometry relative="1" as="geometry" />
        </mxCell>
        <mxCell id="99pYwbjpEy3U4uOJJ85h-13" value="" style="outlineConnect=0;dashed=0;verticalLabelPosition=bottom;verticalAlign=top;align=center;html=1;shape=mxgraph.aws3.internet_gateway;fillColor=#F58534;gradientColor=none;" vertex="1" parent="1">
          <mxGeometry x="384.5" y="-2120" width="69" height="72" as="geometry" />
        </mxCell>
        <mxCell id="99pYwbjpEy3U4uOJJ85h-14" style="edgeStyle=orthogonalEdgeStyle;rounded=0;orthogonalLoop=1;jettySize=auto;html=1;" edge="1" parent="1" source="99pYwbjpEy3U4uOJJ85h-8" target="99pYwbjpEy3U4uOJJ85h-13">
          <mxGeometry relative="1" as="geometry" />
        </mxCell>
        <mxCell id="99pYwbjpEy3U4uOJJ85h-15" value="IGW" style="text;html=1;align=center;verticalAlign=middle;resizable=0;points=[];autosize=1;strokeColor=none;fillColor=none;" vertex="1" parent="1">
          <mxGeometry x="394" y="-2099" width="50" height="30" as="geometry" />
        </mxCell>
        <mxCell id="99pYwbjpEy3U4uOJJ85h-17" style="edgeStyle=orthogonalEdgeStyle;rounded=0;orthogonalLoop=1;jettySize=auto;html=1;" edge="1" parent="1" source="99pYwbjpEy3U4uOJJ85h-9" target="99pYwbjpEy3U4uOJJ85h-13">
          <mxGeometry relative="1" as="geometry" />
        </mxCell>
        <mxCell id="99pYwbjpEy3U4uOJJ85h-21" style="edgeStyle=orthogonalEdgeStyle;rounded=0;orthogonalLoop=1;jettySize=auto;html=1;entryX=0.145;entryY=0.855;entryDx=0;entryDy=0;entryPerimeter=0;" edge="1" parent="1" source="99pYwbjpEy3U4uOJJ85h-12" target="99pYwbjpEy3U4uOJJ85h-13">
          <mxGeometry relative="1" as="geometry" />
        </mxCell>
      </root>
    </mxGraphModel>
  </diagram>
</mxfile>
